# xmcd
# Copyright (C) 1995-1998 Ti Kan
#
# Track frame offsets:
#       150
#       13743
#       29866
#       45188
#       61036
#       78988
#       106213
#       129609
#       143623
#       160299
#
# Disc length: 2323 seconds
#
# Revision: 0
# Processed by: cddbd v1.5.2PL0 Copyright (c) Steve Scherf et al.
# Submitted via: CD-Import v1.0
#
DISCID=7909110a
DTITLE=Living Room - Delivered By Forceps
DYEAR=2009
DGENRE=
TTITLE0=Walk The Sun
TTITLE1=Fed Up
TTITLE2=It's Ok
TTITLE3=Wrongwright
TTITLE4=A Soul's Thought
TTITLE5=Zeppelin
TTITLE6=Pebble In A Gear
TTITLE7=Human
TTITLE8=Dyke
TTITLE9=How Do
EXTD=
EXTT0=
EXTT1=
EXTT2=
EXTT3=
EXTT4=
EXTT5=
EXTT6=
EXTT7=
EXTT8=
EXTT9=
PLAYORDER=
